<svg width="185" height="25" viewBox="0 0 185 25" fill="none" xmlns="http://www.w3.org/2000/svg">
<path d="M37.5483 20.4502V18.919C38.4233 20.3846 40.0858 20.7127 41.0265 20.7127C43.8265 20.7127 46.2108 18.3284 46.2108 14.8284C46.2108 11.4815 44.0671 8.92211 40.9171 8.92211C39.8452 8.92211 38.6202 9.29398 37.8546 10.4534V4.80961H34.0483V20.4502H37.5483ZM37.7671 14.7846C37.7671 13.2096 38.7733 12.2471 40.1077 12.2471C41.3546 12.2471 42.3827 13.2096 42.3827 14.7846C42.3827 16.3596 41.3546 17.3877 40.1077 17.3877C38.7733 17.3877 37.7671 16.3815 37.7671 14.7846Z" fill="#5D5A88"/>
<path d="M55.7824 9.00961C55.6074 8.94398 55.3667 8.92211 55.0824 8.92211C53.5949 8.92211 52.5011 9.73148 51.9105 11.1096V9.18461H48.1261V20.4502H51.9324V16.3159C51.9324 13.9534 53.0042 12.4877 54.9292 12.4877C55.323 12.4877 55.6074 12.5315 55.7824 12.619V9.00961Z" fill="#5D5A88"/>
<path d="M57.2478 20.4502H61.0541V9.18461H57.2478V20.4502ZM57.0947 6.03461C57.0947 7.17211 57.9697 8.00336 59.1291 8.00336C60.2884 8.00336 61.1853 7.17211 61.1853 6.03461C61.1853 4.89711 60.2884 4.06586 59.1291 4.06586C57.9697 4.06586 57.0947 4.89711 57.0947 6.03461Z" fill="#5D5A88"/>
<path d="M66.2779 14.8721L62.406 20.4502H66.6279L68.4654 17.4752L70.3029 20.4502H74.5248L70.6529 14.8721L74.6123 9.18461H70.281L68.4654 12.3127L66.6498 9.18461H62.3185L66.2779 14.8721Z" fill="#5D5A88"/>
<path d="M78.9971 11.394H80.4408V15.9002C80.4408 18.5252 81.9283 19.969 84.3783 19.969C85.4939 19.969 86.3471 19.7283 86.9377 19.444V16.2283C86.4783 16.5565 85.9314 16.644 85.4721 16.644C84.7721 16.644 84.2471 16.2283 84.2471 15.2658V11.394H86.6314V8.44083H84.2471V5.4002H80.5502V8.44083H78.9971V11.394Z" fill="#8D8BA7"/>
<path d="M98.6393 14.9815C98.7487 14.6315 98.858 13.9533 98.858 13.3627C98.858 10.2783 96.6705 8.17833 93.4549 8.17833C90.1299 8.17833 87.5924 10.7596 87.5924 14.0846C87.5924 17.4096 90.0643 19.969 93.9143 19.969C95.8174 19.969 97.3049 19.4877 98.7924 18.1533L96.8674 15.7471C96.3205 16.2721 95.4237 16.7971 94.1987 16.7971C92.908 16.7971 91.683 16.2502 91.508 14.9815H98.6393ZM93.3674 11.1971C94.3518 11.1971 95.1174 11.8096 95.183 12.7721V12.794H91.4424C91.508 11.7658 92.383 11.1971 93.3674 11.1971Z" fill="#8D8BA7"/>
<path d="M100.729 8.44083V19.7065H104.535V13.7783C104.535 12.3783 105.257 11.5033 106.329 11.5033C107.466 11.5033 108.079 12.2033 108.079 13.5158V19.7065H111.885V13.7783C111.885 12.3783 112.651 11.5033 113.679 11.5033C114.816 11.5033 115.429 12.2033 115.429 13.5158V19.7065H119.235V12.8377C119.235 9.92833 117.616 8.17833 114.882 8.17833C112.979 8.17833 111.951 9.03145 111.185 10.0158C110.419 8.8127 109.194 8.17833 107.532 8.17833C106.198 8.17833 105.126 8.6377 104.36 9.7752V8.44083H100.729Z" fill="#8D8BA7"/>
<path d="M121.813 24.0815H125.62V18.6127C126.342 19.6627 127.61 19.969 128.682 19.969C131.832 19.969 133.976 17.4096 133.976 14.0627C133.976 10.5627 131.526 8.17833 128.726 8.17833C127.807 8.17833 126.254 8.50645 125.313 9.97208V8.44083H121.813V24.0815ZM125.532 14.1065C125.532 12.5096 126.538 11.5033 127.873 11.5033C129.12 11.5033 130.148 12.5315 130.148 14.1065C130.148 15.6815 129.12 16.644 127.873 16.644C126.538 16.644 125.532 15.6815 125.532 14.1065Z" fill="#8D8BA7"/>
<path d="M135.76 16.3377C135.76 18.7002 137.116 19.969 139.479 19.969C140.244 19.969 140.835 19.8377 141.251 19.6408V16.5783C140.966 16.6877 140.704 16.7096 140.507 16.7096C139.632 16.7096 139.566 16.1627 139.566 15.6377V4.06583H135.76V16.3377Z" fill="#8D8BA7"/>
<path d="M145.956 19.969C147.444 19.969 148.428 19.3127 148.866 18.4596V19.7065H152.388V12.6627C152.388 9.8627 150.463 8.17833 147.203 8.17833C144.994 8.17833 143.178 9.14083 142.216 10.3658L144.206 12.7502C144.797 12.0721 145.716 11.4158 147.006 11.4158C147.947 11.4158 148.756 11.744 148.756 12.6846V12.7065L145.847 13.2752C143.485 13.7783 142.172 14.9158 142.172 16.5783C142.172 18.569 143.769 19.969 145.956 19.969ZM148.756 15.0033V15.1783C148.756 16.4252 148.056 17.2346 146.853 17.2346C146.175 17.2346 145.803 16.8846 145.803 16.3377C145.803 15.7908 146.241 15.5065 146.919 15.3533L148.756 15.0033Z" fill="#8D8BA7"/>
<path d="M153.744 11.394H155.188V15.9002C155.188 18.5252 156.675 19.969 159.125 19.969C160.241 19.969 161.094 19.7283 161.684 19.444V16.2283C161.225 16.5565 160.678 16.644 160.219 16.644C159.519 16.644 158.994 16.2283 158.994 15.2658V11.394H161.378V8.44083H158.994V5.4002H155.297V8.44083H153.744V11.394Z" fill="#8D8BA7"/>
<path d="M173.386 14.9815C173.495 14.6315 173.605 13.9533 173.605 13.3627C173.605 10.2783 171.417 8.17833 168.202 8.17833C164.877 8.17833 162.339 10.7596 162.339 14.0846C162.339 17.4096 164.811 19.969 168.661 19.969C170.564 19.969 172.052 19.4877 173.539 18.1533L171.614 15.7471C171.067 16.2721 170.17 16.7971 168.945 16.7971C167.655 16.7971 166.43 16.2502 166.255 14.9815H173.386ZM168.114 11.1971C169.098 11.1971 169.864 11.8096 169.93 12.7721V12.794H166.189C166.255 11.7658 167.13 11.1971 168.114 11.1971Z" fill="#8D8BA7"/>
<path d="M179.369 19.969C182.169 19.969 184.051 18.4158 184.051 16.4033C184.051 14.1721 182.322 13.5815 180.551 12.8815C178.954 12.2033 178.276 12.094 178.276 11.6783C178.276 11.2627 178.779 11.0221 179.369 11.0221C180.419 11.0221 181.01 11.5252 181.382 12.1596L183.744 10.4533C183.044 9.11895 181.404 8.17833 179.479 8.17833C176.941 8.17833 174.819 9.40333 174.819 11.6565C174.819 13.4721 176.066 14.369 178.276 15.1565C179.829 15.7033 180.594 15.9002 180.594 16.4908C180.594 16.9065 180.179 17.1252 179.413 17.1252C178.276 17.1252 177.401 16.4252 176.876 15.5283L174.447 17.3877C175.388 19.0502 177.269 19.969 179.369 19.969Z" fill="#8D8BA7"/>
<path fill-rule="evenodd" clip-rule="evenodd" d="M21.0908 7.19212C22.965 7.19212 24.4843 5.67279 24.4843 3.79861C24.4843 1.92442 22.965 0.40509 21.0908 0.40509C19.2166 0.40509 17.6973 1.92442 17.6973 3.79861C17.6973 5.67279 19.2166 7.19212 21.0908 7.19212Z" fill="#8D8BA7"/>
<path fill-rule="evenodd" clip-rule="evenodd" d="M21.0908 15.7151C22.965 15.7151 24.4843 14.1959 24.4843 12.3217C24.4843 10.4476 22.965 8.92831 21.0908 8.92831C19.2166 8.92831 17.6973 10.4476 17.6973 12.3217C17.6973 14.1959 19.2166 15.7151 21.0908 15.7151Z" fill="#8D8BA7"/>
<path fill-rule="evenodd" clip-rule="evenodd" d="M21.0908 24.5542C22.965 24.5542 24.4843 23.0349 24.4843 21.1607C24.4843 19.2865 22.965 17.7672 21.0908 17.7672C19.2166 17.7672 17.6973 19.2865 17.6973 21.1607C17.6973 23.0349 19.2166 24.5542 21.0908 24.5542Z" fill="#8D8BA7"/>
<path fill-rule="evenodd" clip-rule="evenodd" d="M12.2523 15.7151C14.1264 15.7151 15.6457 14.1959 15.6457 12.3217C15.6457 10.4476 14.1264 8.92831 12.2523 8.92831C10.3782 8.92831 8.85889 10.4476 8.85889 12.3217C8.85889 14.1959 10.3782 15.7151 12.2523 15.7151Z" fill="#8D8BA7"/>
<path fill-rule="evenodd" clip-rule="evenodd" d="M12.2518 24.5542C14.1259 24.5542 15.6452 23.0349 15.6452 21.1607C15.6452 19.2865 14.1259 17.7672 12.2518 17.7672C10.3777 17.7672 8.8584 19.2865 8.8584 21.1607C8.8584 23.0349 10.3777 24.5542 12.2518 24.5542Z" fill="#8D8BA7"/>
<path fill-rule="evenodd" clip-rule="evenodd" d="M3.72848 24.5542C5.60266 24.5542 7.12199 23.0349 7.12199 21.1607C7.12199 19.2865 5.60266 17.7672 3.72848 17.7672C1.85429 17.7672 0.334961 19.2865 0.334961 21.1607C0.334961 23.0349 1.85429 24.5542 3.72848 24.5542Z" fill="#8D8BA7"/>
</svg>
